<!--?xml version="1.0" standalone="no"?-->
              <svg id="sw-js-blob-svg" viewBox="0 0 100 100" xmlns="http://www.w3.org/2000/svg" version="1.1">
                    <defs> 
                        <linearGradient id="sw-gradient" x1="0" x2="1" y1="1" y2="0">
                            <stop id="stop1" stop-color="rgba(248, 117, 55, 1)" offset="0%"></stop>
                            <stop id="stop2" stop-color="rgba(251, 168, 31, 1)" offset="100%"></stop>
                        </linearGradient>
                    </defs>
                <path fill="url(#sw-gradient)" d="M18.6,-24.3C20.9,-20.2,17.4,-11.3,13.5,-6.4C9.5,-1.5,5.1,-0.6,5.5,7.3C5.9,15.1,11.1,29.9,9.9,32.8C8.7,35.7,1.1,26.8,-7.7,22.8C-16.4,18.9,-26.4,19.9,-31.8,15.8C-37.3,11.7,-38.3,2.4,-34.1,-3.3C-29.9,-8.9,-20.3,-10.9,-13.8,-14.3C-7.2,-17.7,-3.6,-22.5,2.3,-25.1C8.1,-27.8,16.3,-28.5,18.6,-24.3Z" width="100%" height="100%" transform="translate(50 50)" style="transition: all 0.3s ease 0s;" stroke-width="0"></path>
              </svg>